<svg xmlns="http://www.w3.org/2000/svg" viewBox="0 0 986.23 554.76"><defs><style>.cls-1{fill:#fff;}</style></defs><title>logo_rgb</title><g id="Logo_wit"><path class="cls-1" d="M197.19,326.82l-25.8-37a48.08,48.08,0,0,1-4.87.18H138v36.81H114.56V200.52h52q16.41,0,28.6,5.41a41.56,41.56,0,0,1,18.67,15.52q6.5,10.1,6.5,24,0,14.26-6.95,24.54T193.4,285.32l29,41.5Zm-8.48-100q-7.94-6.5-23.27-6.5H138V270.7h27.43q15.33,0,23.27-6.58t7.94-18.68Q196.65,233.36,188.71,226.86Z"/><path class="cls-1" d="M834.78,319.87q-8.4-8.21-8.39-23.19V192.94h22.55V295.06q0,14.44,13.53,14.43a18,18,0,0,0,8.12-1.8l1.08,18a38.63,38.63,0,0,1-13.53,2.35Q843.17,328.08,834.78,319.87Z"/><path class="cls-1" d="M531.34,230.47c0,6.1,0,41.26,0,54.45A23.82,23.82,0,0,1,523,303a18.33,18.33,0,0,1-6.21,3.88,23.88,23.88,0,0,1-18.67,0,18.4,18.4,0,0,1-6.22-3.89,23.79,23.79,0,0,1-8.32-18.09c0-7.75-.15-46.59-.15-54.45h-20.5V286q0,20.83,10.95,31.43c7.31,7.07,20.87,10.6,33.57,10.6s26.27-3.53,33.57-10.6,11-17.54,11-31.43V230.47Z"/><path class="cls-1" d="M675.24,252.84a44.29,44.29,0,0,0-17.42-17.32,51.1,51.1,0,0,0-25.17-6.14,46.7,46.7,0,0,0-18.13,3.43,35,35,0,0,0-13.8,10.29V230.47H579.25V361.82H601.8V315.09q11.37,13,30.85,13a51.1,51.1,0,0,0,25.17-6.14,44.07,44.07,0,0,0,17.42-17.41,52.17,52.17,0,0,0,6.31-25.89Q681.55,264,675.24,252.84ZM647.79,303a27,27,0,0,1-15.51,5.7c-.67.05-1.34.08-2,.09H630c-.58,0-1.15,0-1.72,0l-.92-.07-.59,0a28.29,28.29,0,0,1-11.3-3.53c-.26-.15-.52-.32-.78-.48a30.13,30.13,0,0,1,0-51.91l.77-.47a28.24,28.24,0,0,1,11.29-3.53l.61-.05.91-.07c.57,0,1.14-.05,1.72-.05h.22c.68,0,1.35,0,2,.08a27,27,0,0,1,15.49,5.69,30.11,30.11,0,0,1,0,48.69Z"/><path class="cls-1" d="M414,305.43a28.31,28.31,0,0,1-13.62,3.34l-.75,0-.58,0h-.23c-.57,0-1.15,0-1.72,0l-.91-.07-.59,0a28.24,28.24,0,0,1-11.3-3.53c-.27-.15-.52-.32-.78-.48a30.12,30.12,0,0,1,0-51.91l.77-.47a28.19,28.19,0,0,1,11.29-3.53l.61-.05.9-.07c.57,0,1.15-.05,1.72-.05H399l.59,0c.25,0,.49,0,.74,0A28.31,28.31,0,0,1,414,251.85a27.5,27.5,0,0,1,10.38,10l17.32-10.1a37.45,37.45,0,0,0-16.15-16.6q-10.74-5.78-25-5.78a56.32,56.32,0,0,0-27,6.32,46.7,46.7,0,0,0-18.5,17.5,52,52,0,0,0,0,51,46.36,46.36,0,0,0,18.59,17.59,56.37,56.37,0,0,0,26.88,6.32q14.07,0,24.81-5.87a39,39,0,0,0,16.33-16.69l-17.32-10.1A27.5,27.5,0,0,1,414,305.43Z"/><path class="cls-1" d="M316.5,298.79a39,39,0,0,1-38.21,8.67,29.36,29.36,0,0,1-16-13.31l72.86-14.23c0-.31,0-.61,0-.91,0-27.19-22-49.63-49.23-49.63a49.63,49.63,0,1,0-.4,99.25c15.62,0,31.67-2.68,42.82-16Zm-36.4-52.14a27.44,27.44,0,0,1,32.2,21.66l-53.86,10.53A27.43,27.43,0,0,1,280.1,246.65Z"/><path class="cls-1" d="M781.77,299a39,39,0,0,1-38.2,8.67,29.41,29.41,0,0,1-16.05-13.31l72.87-14.23c0-.31,0-.61,0-.91,0-27.19-22-49.63-49.22-49.63a49.63,49.63,0,1,0-.4,99.25c15.61,0,31.67-2.68,42.82-16Zm-36.39-52.14a27.44,27.44,0,0,1,32.2,21.66l-53.86,10.53A27.43,27.43,0,0,1,745.38,246.89Z"/></g></svg>